<svg xmlns="http://www.w3.org/2000/svg" version="1.1" xmlns:xlink="http://www.w3.org/1999/xlink" xmlns:svgjs="http://svgjs.dev/svgjs" width="2000" height="520" viewBox="0 0 2000 520"><g transform="matrix(1,0,0,1,-1.2121212121212466,-1.1689212173112082)"><svg viewBox="0 0 396 103" data-background-color="#f8f8f8" preserveAspectRatio="xMidYMid meet" height="520" width="2000" xmlns="http://www.w3.org/2000/svg" xmlns:xlink="http://www.w3.org/1999/xlink"><g id="tight-bounds" transform="matrix(1,0,0,1,0.2400000000000091,0.23153631804433417)"><svg viewBox="0 0 395.52 102.5369273639113" height="102.5369273639113" width="395.52"><g><svg viewBox="0 0 551.7326268516833 143.03440605731956" height="102.5369273639113" width="395.52"><g transform="matrix(1,0,0,1,0,19.768141502856764)"><svg viewBox="0 0 395.52 103.49812305160603" height="103.49812305160603" width="395.52"><g id="textblocktransform"><svg viewBox="0 0 395.52 103.49812305160603" height="103.49812305160603" width="395.52" id="textblock"><g><svg viewBox="0 0 395.52 55.821942062572425" height="55.821942062572425" width="395.52"><g transform="matrix(1,0,0,1,0,0)"><svg width="395.52" viewBox="3.55 -30.15 215.73 30.45" height="55.821942062572425" data-palette-color="#61777f"><path d="M27.6-10.3L27.6-7.95Q27.6-3.85 24.9-1.9L24.9-1.9Q22.25 0 19.6 0L19.6 0 11.2 0Q8.55 0 6.05-1.9L6.05-1.9Q4.85-2.9 4.2-4.42 3.55-5.95 3.55-7.95L3.55-7.95 3.55-22.2Q3.55-26.25 6.05-28.2L6.05-28.2Q7.3-29.1 8.63-29.63 9.95-30.15 11.2-30.15L11.2-30.15 19.6-30.15Q20.8-30.15 22.25-29.68 23.7-29.2 24.95-28.4L24.95-28.4Q26.15-27.55 26.88-26.05 27.6-24.55 27.6-22.5L27.6-22.5 27.6-20Q27.6-17.6 24.85-17.6L24.85-17.6Q22.1-17.6 22.1-20L22.1-20 22.1-22.15Q22.1-23.4 21.33-24.43 20.55-25.45 18.7-25.45L18.7-25.45 12.45-25.45Q10.6-25.45 9.83-24.43 9.05-23.4 9.05-22.15L9.05-22.15 9.05-8Q9.05-6.8 9.83-5.75 10.6-4.7 12.45-4.7L12.45-4.7 18.7-4.7Q20.55-4.7 21.33-5.75 22.1-6.8 22.1-8L22.1-8 22.1-10.3Q22.1-12.65 24.85-12.65L24.85-12.65Q27.6-12.65 27.6-10.3L27.6-10.3ZM47.95 0L41.4 0Q39.85 0 38.45-0.43 37.05-0.85 35.75-1.65L35.75-1.65 35.75-1.6Q33.3-3.15 33.3-7.3L33.3-7.3 33.3-9.75Q33.3-11.8 34.02-13.33 34.75-14.85 36.05-15.75L36.05-15.75 36-15.75Q37.25-16.6 38.65-17.03 40.05-17.45 41.35-17.45L41.35-17.45 52.4-17.45 52.4-22.1Q52.4-23.35 51.62-24.38 50.85-25.4 49-25.4L49-25.4 43.15-25.4Q41.25-25.4 40.52-24.48 39.8-23.55 39.8-22.3L39.8-22.3 39.8-21.9Q39.8-19.3 37-19.3L37-19.3Q34.2-19.3 34.2-21.9L34.2-21.9 34.2-22.35Q34.2-24.4 34.92-25.8 35.65-27.2 36.9-28.15L36.9-28.15 36.85-28.15Q38.15-29 39.57-29.55 41-30.1 42.3-30.1L42.3-30.1 49.9-30.1Q51.15-30.1 52.57-29.55 54-29 55.25-28.15L55.25-28.15 55.2-28.15Q56.5-27.2 57.2-25.68 57.9-24.15 57.9-22.15L57.9-22.15 57.9-2.1Q57.9 0.3 55.15 0.3L55.15 0.3Q54.6 0.3 54.12 0.25 53.65 0.2 53.27-0.03 52.9-0.25 52.67-0.68 52.45-1.1 52.45-1.8L52.45-1.8 52.4-12.75 42.3-12.75Q41.2-12.75 40.6-12.5 40-12.25 39.65-11.7L39.65-11.7Q39.25-10.85 39.07-10.38 38.9-9.9 38.9-9.3L38.9-9.3 38.9-7.35Q38.9-6.05 39.67-5.38 40.45-4.7 42.35-4.7L42.35-4.7 47.95-4.7Q49.8-4.7 49.8-2.35L49.8-2.35Q49.8-1.35 49.35-0.68 48.9 0 47.95 0L47.95 0ZM69.75-22.75L69.75-2.1Q69.75 0.3 67 0.3L67 0.3Q64.14 0.3 64.14-2.1L64.14-2.1 64.14-22.8Q64.14-26.9 66.59-28.5L66.59-28.5Q69.05-30.1 72.25-30.1L72.25-30.1 77.95-30.1Q79.8-30.1 79.8-27.75L79.8-27.75Q79.9-25.4 77.95-25.4L77.95-25.4 72.65-25.4Q70.84-25.4 70.3-24.7 69.75-24 69.75-22.75L69.75-22.75ZM89.44-22.75L89.44-2.1Q89.44 0.3 86.69 0.3L86.69 0.3Q83.84 0.3 83.84-2.1L83.84-2.1 83.84-22.8Q83.84-26.9 86.29-28.5L86.29-28.5Q88.74-30.1 91.94-30.1L91.94-30.1 97.64-30.1Q99.49-30.1 99.49-27.75L99.49-27.75Q99.59-25.4 97.64-25.4L97.64-25.4 92.34-25.4Q90.54-25.4 89.99-24.7 89.44-24 89.44-22.75L89.44-22.75ZM117.84 0L111.29 0Q109.74 0 108.34-0.43 106.94-0.85 105.64-1.65L105.64-1.65 105.64-1.6Q103.19-3.15 103.19-7.3L103.19-7.3 103.19-9.75Q103.19-11.8 103.92-13.33 104.64-14.85 105.94-15.75L105.94-15.75 105.89-15.75Q107.14-16.6 108.54-17.03 109.94-17.45 111.24-17.45L111.24-17.45 122.29-17.45 122.29-22.1Q122.29-23.35 121.52-24.38 120.74-25.4 118.89-25.4L118.89-25.4 113.04-25.4Q111.14-25.4 110.42-24.48 109.69-23.55 109.69-22.3L109.69-22.3 109.69-21.9Q109.69-19.3 106.89-19.3L106.89-19.3Q104.09-19.3 104.09-21.9L104.09-21.9 104.09-22.35Q104.09-24.4 104.82-25.8 105.54-27.2 106.79-28.15L106.79-28.15 106.74-28.15Q108.04-29 109.47-29.55 110.89-30.1 112.19-30.1L112.19-30.1 119.79-30.1Q121.04-30.1 122.47-29.55 123.89-29 125.14-28.15L125.14-28.15 125.09-28.15Q126.39-27.2 127.09-25.68 127.79-24.15 127.79-22.15L127.79-22.15 127.79-2.1Q127.79 0.3 125.04 0.3L125.04 0.3Q124.49 0.3 124.02 0.25 123.54 0.2 123.17-0.03 122.79-0.25 122.57-0.68 122.34-1.1 122.34-1.8L122.34-1.8 122.29-12.75 112.19-12.75Q111.09-12.75 110.49-12.5 109.89-12.25 109.54-11.7L109.54-11.7Q109.14-10.85 108.97-10.38 108.79-9.9 108.79-9.3L108.79-9.3 108.79-7.35Q108.79-6.05 109.57-5.38 110.34-4.7 112.24-4.7L112.24-4.7 117.84-4.7Q119.69-4.7 119.69-2.35L119.69-2.35Q119.69-1.35 119.24-0.68 118.79 0 117.84 0L117.84 0ZM143.14-17.5L150.49-17.5Q151.74-17.5 153.16-16.93 154.59-16.35 155.84-15.5L155.84-15.5 155.79-15.5Q157.09-14.55 157.79-13.05 158.49-11.55 158.49-9.45L158.49-9.45 158.49-7.95Q158.49-3.85 155.79-1.9L155.79-1.9Q154.49-0.9 153.14-0.45 151.79 0 150.49 0L150.49 0 141.99 0Q140.69 0 139.34-0.45 137.99-0.9 136.69-1.9L136.69-1.9Q133.99-3.8 133.99-7.95L133.99-7.95 133.99-8.55Q133.99-10.7 136.74-10.65L136.74-10.65Q139.54-10.65 139.54-8.55L139.54-8.55 139.54-8Q139.54-6.8 140.29-5.75 141.04-4.7 142.94-4.7L142.94-4.7 149.54-4.7Q151.44-4.7 152.19-5.75 152.94-6.8 152.94-8L152.94-8 152.94-9.4Q152.94-10.05 152.76-10.65 152.59-11.25 152.19-11.73 151.79-12.2 151.14-12.5 150.49-12.8 149.54-12.8L149.54-12.8 142.24-12.8Q139.69-12.8 136.89-14.6L136.89-14.6Q134.24-16.3 134.24-20.45L134.24-20.45 134.24-22.15Q134.24-24.15 134.94-25.68 135.64-27.2 136.94-28.15L136.94-28.15 136.89-28.15Q138.14-29 139.54-29.55 140.94-30.1 142.24-30.1L142.24-30.1 150.24-30.1Q151.54-30.1 152.91-29.55 154.29-29 155.59-28.15L155.59-28.15 155.54-28.15Q156.84-27.2 157.54-25.68 158.24-24.15 158.24-22.15L158.24-22.15 158.24-21.7Q158.24-20.65 157.54-20.18 156.84-19.7 155.49-19.65L155.49-19.65Q152.74-19.6 152.74-21.7L152.74-21.7 152.74-22.1Q152.74-23.35 151.96-24.38 151.19-25.4 149.34-25.4L149.34-25.4 143.14-25.4Q141.29-25.4 140.51-24.38 139.74-23.35 139.74-22.1L139.74-22.1 139.74-20.9Q139.74-19.6 140.51-18.55 141.29-17.5 143.14-17.5L143.14-17.5ZM189.03-10.3L189.03-7.95Q189.03-3.85 186.34-1.9L186.34-1.9Q183.69 0 181.03 0L181.03 0 172.63 0Q169.99 0 167.49-1.9L167.49-1.9Q166.28-2.9 165.63-4.42 164.99-5.95 164.99-7.95L164.99-7.95 164.99-22.2Q164.99-26.25 167.49-28.2L167.49-28.2Q168.74-29.1 170.06-29.63 171.38-30.15 172.63-30.15L172.63-30.15 181.03-30.15Q182.24-30.15 183.69-29.68 185.13-29.2 186.38-28.4L186.38-28.4Q187.59-27.55 188.31-26.05 189.03-24.55 189.03-22.5L189.03-22.5 189.03-20Q189.03-17.6 186.28-17.6L186.28-17.6Q183.53-17.6 183.53-20L183.53-20 183.53-22.15Q183.53-23.4 182.76-24.43 181.99-25.45 180.13-25.45L180.13-25.45 173.88-25.45Q172.03-25.45 171.26-24.43 170.49-23.4 170.49-22.15L170.49-22.15 170.49-8Q170.49-6.8 171.26-5.75 172.03-4.7 173.88-4.7L173.88-4.7 180.13-4.7Q181.99-4.7 182.76-5.75 183.53-6.8 183.53-8L183.53-8 183.53-10.3Q183.53-12.65 186.28-12.65L186.28-12.65Q189.03-12.65 189.03-10.3L189.03-10.3ZM203.28-30.1L211.28-30.1Q212.58-30.1 213.96-29.55 215.33-29 216.63-28.15L216.63-28.15 216.58-28.15Q217.88-27.2 218.58-25.68 219.28-24.15 219.28-22.15L219.28-22.15 219.28-7.95Q219.28-3.85 216.58-1.9L216.58-1.9Q213.93 0 211.28 0L211.28 0 203.28 0Q201.98 0 200.63-0.45 199.28-0.9 197.98-1.9L197.98-1.9Q195.28-3.8 195.28-7.95L195.28-7.95 195.28-22.15Q195.28-24.15 195.98-25.68 196.68-27.2 197.98-28.15L197.98-28.15 197.93-28.15Q199.18-29 200.58-29.55 201.98-30.1 203.28-30.1L203.28-30.1ZM204.18-4.7L210.38-4.7Q212.23-4.7 213.01-5.75 213.78-6.8 213.78-8L213.78-8 213.78-22.1Q213.78-23.35 213.01-24.38 212.23-25.4 210.38-25.4L210.38-25.4 204.18-25.4Q202.33-25.4 201.56-24.38 200.78-23.35 200.78-22.1L200.78-22.1 200.78-8Q200.78-6.8 201.56-5.75 202.33-4.7 204.18-4.7L204.18-4.7Z" opacity="1" transform="matrix(1,0,0,1,0,0)" fill="#61777f" class="wordmark-text-0" data-fill-palette-color="primary" id="text-0"></path></svg></g></svg></g><g transform="matrix(1,0,0,1,283.8712231149931,69.00016285693627)"><svg viewBox="0 0 111.6487768850069 34.49796019466976" height="34.49796019466976" width="111.6487768850069"><g transform="matrix(1,0,0,1,0,0)"><svg width="111.6487768850069" viewBox="2.6 -36.8 121.84 37.65" height="34.49796019466976" data-palette-color="#000000"><path d="M12.9 0.85Q9.85 0.85 7.5 0.35 5.15-0.15 2.6-1.35L2.6-1.35 2.6-6Q7.35-3.35 12.9-3.35L12.9-3.35Q15.7-3.35 16.93-4.48 18.15-5.6 18.15-7.45L18.15-7.45Q18.15-9.25 17.18-10.1 16.2-10.95 14-11.55L14-11.55 10.75-12.35Q7.25-13.2 5.25-15.05 3.25-16.9 3.25-20.5L3.25-20.5Q3.25-24.25 5.7-26.35 8.15-28.45 12.9-28.45L12.9-28.45Q15.35-28.45 17.45-27.98 19.55-27.5 21.65-26.65L21.65-26.65 21.65-22.25Q19.6-23.2 17.6-23.73 15.6-24.25 13.05-24.25L13.05-24.25Q10.4-24.25 9.22-23.23 8.05-22.2 8.05-20.65L8.05-20.65Q8.05-18.95 9.08-18.07 10.1-17.2 12.05-16.7L12.05-16.7 15.35-15.95Q17.85-15.35 19.48-14.45 21.1-13.55 22.03-11.93 22.95-10.3 22.95-7.6L22.95-7.6Q22.95-3.55 20.23-1.35 17.5 0.85 12.9 0.85L12.9 0.85ZM42.25-22.95L35.85-22.95 35.85-7.15Q35.85-5.15 36.47-4.42 37.1-3.7 38.8-3.7L38.8-3.7Q40.3-3.7 42-4.1L42-4.1 42 0.15Q39.75 0.65 38 0.65L38 0.65Q34.2 0.65 32.67-0.9 31.15-2.45 31.15-6.1L31.15-6.1 31.15-22.95 27.55-22.95 27.55-27.3 31.15-27.3 31.15-36.8 35.85-36.8 35.85-27.3 42.25-27.3 42.25-22.95ZM60.8 0.85Q56.4 0.85 53.32-1.07 50.25-3 48.7-6.33 47.15-9.65 47.15-13.8L47.15-13.8Q47.15-17.95 48.7-21.28 50.25-24.6 53.32-26.53 56.4-28.45 60.8-28.45L60.8-28.45Q65.2-28.45 68.27-26.53 71.34-24.6 72.87-21.28 74.4-17.95 74.4-13.8L74.4-13.8Q74.4-9.65 72.87-6.33 71.34-3 68.27-1.07 65.2 0.85 60.8 0.85L60.8 0.85ZM60.8-3.4Q64.95-3.4 67.22-6.3 69.5-9.2 69.5-13.8L69.5-13.8Q69.5-18.4 67.22-21.28 64.95-24.15 60.8-24.15L60.8-24.15Q56.65-24.15 54.35-21.28 52.05-18.4 52.05-13.8L52.05-13.8Q52.05-9.2 54.35-6.3 56.65-3.4 60.8-3.4L60.8-3.4ZM94.74-28.25L95.89-28.25 95.89-23.85 94.74-23.85Q90.44-23.85 86.39-20.4L86.39-20.4 86.39 0 81.69 0 81.69-27.65 86.39-27.65 86.39-24.55Q90.49-28.25 94.74-28.25L94.74-28.25ZM105.09-13.45Q105.19-8.85 107.39-6.1 109.59-3.35 114.39-3.35L114.39-3.35Q118.04-3.35 122.39-5.4L122.39-5.4 123.84-1.5Q119.29 0.85 113.99 0.85L113.99 0.85Q109.59 0.85 106.49-1 103.39-2.85 101.79-6.15 100.19-9.45 100.19-13.85L100.19-13.85Q100.19-18.5 101.87-21.78 103.54-25.05 106.39-26.75 109.24-28.45 112.79-28.45L112.79-28.45Q118.24-28.45 121.34-25.05 124.44-21.65 124.44-15.3L124.44-15.3 124.44-13.45 105.09-13.45ZM112.79-24.25Q106.59-24.25 105.39-17.4L105.39-17.4 119.49-17.4Q119.24-20.9 117.59-22.58 115.94-24.25 112.79-24.25L112.79-24.25Z" opacity="1" transform="matrix(1,0,0,1,0,0)" fill="#000000" class="slogan-text-1" data-fill-palette-color="secondary" id="text-1"></path></svg></g></svg></g></svg></g></svg></g><g transform="matrix(1,0,0,1,408.6982207943638,0)"><svg viewBox="0 0 143.03440605731956 143.03440605731956" height="143.03440605731956" width="143.03440605731956"><g data-palette-color="#c8c8c8"><rect width="39.09607098900068" height="143.03440605731956" fill="#c8c8c8" stroke="transparent" data-fill-palette-color="accent" x="0" fill-opacity="1"></rect><rect width="39.09607098900068" height="143.03440605731956" fill="#c8c8c8" stroke="transparent" data-fill-palette-color="accent" x="47.67813535243985" fill-opacity="0.75"></rect><rect width="39.09607098900068" height="143.03440605731956" fill="#c8c8c8" stroke="transparent" data-fill-palette-color="accent" x="95.3562707048797" fill-opacity="0.5"></rect></g></svg></g></svg></g><defs></defs></svg><rect width="395.52" height="102.5369273639113" fill="none" stroke="none" visibility="hidden"></rect></g></svg></g></svg>